<?xml version="1.0" encoding="utf-8"?>
<!-- Generator: Adobe Illustrator 17.1.0, SVG Export Plug-In . SVG Version: 6.00 Build 0)  -->
<!DOCTYPE svg PUBLIC "-//W3C//DTD SVG 1.1//EN" "http://www.w3.org/Graphics/SVG/1.1/DTD/svg11.dtd">
<svg version="1.1" id="Layer_1" xmlns="http://www.w3.org/2000/svg" xmlns:xlink="http://www.w3.org/1999/xlink" x="0px" y="0px"
	 viewBox="0 0 60 60" enable-background="new 0 0 60 60" xml:space="preserve">
<g>
	<polygon fill="#BDAA55" points="42.1,23.3 42.1,18.6 42.1,17.9 41.4,17.9 36.7,17.9 36.7,23.4 	"/>
	<path fill="#BDAA55" d="M29.8,35.9c3.1,0,5.6-2.5,5.6-5.6c0-1.2-0.4-2.4-1.1-3.3c-1-1.4-2.7-2.3-4.6-2.3c-1.9,0-3.5,0.9-4.6,2.3
		c-0.7,0.9-1.1,2.1-1.1,3.3C24.2,33.3,26.7,35.9,29.8,35.9z"/>
	<path fill="#BDAA55" d="M30,0.4C13.7,0.4,0.5,13.5,0.5,29.8C0.5,46,13.7,59.2,30,59.2c16.2,0,29.4-13.2,29.4-29.4
		C59.4,13.5,46.2,0.4,30,0.4z M45.8,26.9V40c0,3.4-2.8,6.2-6.2,6.2H20c-3.4,0-6.2-2.8-6.2-6.2V26.9v-6.5c0-3.4,2.8-6.2,6.2-6.2h19.6
		c3.4,0,6.2,2.8,6.2,6.2V26.9z"/>
	<path fill="#BDAA55" d="M38.6,30.2c0,4.8-3.9,8.7-8.7,8.7c-4.8,0-8.7-3.9-8.7-8.7c0-1.2,0.2-2.3,0.6-3.3h-4.8V40
		c0,1.7,1.4,3.1,3.1,3.1h19.6c1.7,0,3.1-1.4,3.1-3.1V26.9h-4.8C38.3,28,38.6,29.1,38.6,30.2z"/>
</g>
</svg>
