<?xml version="1.0" encoding="UTF-8" standalone="no"?>
<svg width="70px" height="81px" viewBox="0 0 70 81" version="1.1" xmlns="http://www.w3.org/2000/svg" xmlns:xlink="http://www.w3.org/1999/xlink" xmlns:sketch="http://www.bohemiancoding.com/sketch/ns">
    <!-- Generator: Sketch 3.4.2 (15855) - http://www.bohemiancoding.com/sketch -->
    <title>Group</title>
    <desc>Created with Sketch.</desc>
    <defs></defs>
    <g id="Page-1" stroke="none" stroke-width="1" fill="none" fill-rule="evenodd" sketch:type="MSPage">
        <g id="Artboard-1" sketch:type="MSArtboardGroup" transform="translate(-237.000000, -173.000000)" stroke="#FFFFFF">
            <g id="Group" sketch:type="MSLayerGroup" transform="translate(237.000000, 173.000000)">
                <rect id="Rectangle-3" stroke-width="2" sketch:type="MSShapeGroup" x="26.3529412" y="49.4117647" width="13.1764706" height="30.9429066" rx="3"></rect>
                <g id="Line-+-Line" transform="translate(30.470588, 50.235294)" stroke-width="2" sketch:type="MSShapeGroup" stroke-linecap="round" stroke-linejoin="round">
                    <path d="M0.823529412,0.38389395 L0.823529412,10.0910804" id="Line"></path>
                    <path d="M4.94117647,0.38389395 L4.94117647,4.83302106" id="Line"></path>
                </g>
                <path d="M33.0534759,45.918648 C35.8444336,45.918648 38.1069519,43.641342 38.1069519,40.8321428 C38.1069519,38.0229435 33.0534759,31.2941176 33.0534759,31.2941176 C33.0534759,31.2941176 28,38.0229435 28,40.8321428 C28,43.641342 30.2625182,45.918648 33.0534759,45.918648 Z" id="Oval-1" stroke-width="2" stroke-linecap="round" stroke-linejoin="round" sketch:type="MSShapeGroup"></path>
                <path d="M32.9411765,19.1434095 L32.9411765,25.3477509" id="Line" stroke-width="2" stroke-linecap="round" stroke-linejoin="round" sketch:type="MSShapeGroup"></path>
                <path d="M20.5882353,24.7058823 L23.612604,27.911912" id="Line" stroke-width="2" stroke-linecap="round" stroke-linejoin="round" sketch:type="MSShapeGroup"></path>
                <path d="M15.6470588,37.8823529 L20.2043414,37.8823529" id="Line" stroke-width="2" stroke-linecap="round" stroke-linejoin="round" sketch:type="MSShapeGroup"></path>
                <path d="M46.8678993,24.8875433 L43.6618697,27.911912" id="Line" stroke-width="2" stroke-linecap="round" stroke-linejoin="round" sketch:type="MSShapeGroup"></path>
                <path d="M46.9411765,37.8823529 L51.498459,37.8823529" id="Line" stroke-width="2" stroke-linecap="round" stroke-linejoin="round" sketch:type="MSShapeGroup"></path>
                <path d="M38.7347777,59.4100759 C49.1250826,56.820943 56.8235294,47.4271528 56.8235294,36.2352941 C56.8235294,23.0454348 46.1310358,12.3529412 32.9411765,12.3529412 C19.7513172,12.3529412 9.05882353,23.0454348 9.05882353,36.2352941 C9.05882353,47.3391513 16.6366806,56.6731052 26.9029802,59.3477412 L26.9029802,59.3477412" id="Oval-3" stroke-width="2" sketch:type="MSShapeGroup"></path>
                <g transform="translate(0.000000, 11.529412)" id="Oval-1" stroke-width="0.25" fill="#FFFFFF" stroke-linecap="round" sketch:type="MSShapeGroup" stroke-linejoin="round">
                    <path d="M4.11764706,5.17601533 C4.79114272,5.17601533 5.33711883,4.4638113 5.33711883,3.58526311 C5.33711883,2.70671492 4.11764706,0.602343791 4.11764706,0.602343791 C4.11764706,0.602343791 2.89817529,2.70671492 2.89817529,3.58526311 C2.89817529,4.4638113 3.4441514,5.17601533 4.11764706,5.17601533 Z"></path>
                    <path d="M5.07428262,4.23677314 C5.07428262,3.57552286 4.34888963,3.03947359 3.45407203,3.03947359 C2.55925442,3.03947359 0.415913459,4.23677314 0.415913459,4.23677314 C0.415913459,4.23677314 2.55925442,5.4340727 3.45407203,5.4340727 C4.34888963,5.4340727 5.07428262,4.89802343 5.07428262,4.23677314 L5.07428262,4.23677314 Z"></path>
                    <path d="M3.1610115,4.23677314 C3.1610115,4.89802343 3.88640449,5.4340727 4.78122209,5.4340727 C5.67603969,5.4340727 7.81938066,4.23677314 7.81938066,4.23677314 C7.81938066,4.23677314 5.67603969,3.03947359 4.78122209,3.03947359 C3.88640449,3.03947359 3.1610115,3.57552286 3.1610115,4.23677314 L3.1610115,4.23677314 Z"></path>
                    <path d="M4.11764706,2.62373417 C3.4441514,2.62373417 2.89817529,3.33593819 2.89817529,4.21448638 C2.89817529,5.09303457 4.11764706,7.1974057 4.11764706,7.1974057 C4.11764706,7.1974057 5.33711883,5.09303457 5.33711883,4.21448638 C5.33711883,3.33593819 4.79114272,2.62373417 4.11764706,2.62373417 L4.11764706,2.62373417 Z"></path>
                </g>
                <g id="Group-Copy-3" transform="translate(0.823529, 46.941176)" stroke-width="0.25" fill="#FFFFFF" stroke-linecap="round" sketch:type="MSShapeGroup" stroke-linejoin="round">
                    <path d="M1.64705882,2.30045126 C1.91645709,2.30045126 2.13484753,1.98391613 2.13484753,1.59345027 C2.13484753,1.20298441 1.64705882,0.267708352 1.64705882,0.267708352 C1.64705882,0.267708352 1.15927012,1.20298441 1.15927012,1.59345027 C1.15927012,1.98391613 1.37766056,2.30045126 1.64705882,2.30045126 Z" id="Oval-1"></path>
                    <path d="M2.02971305,1.88301029 C2.02971305,1.58912127 1.73955585,1.35087715 1.38162881,1.35087715 C1.02370177,1.35087715 0.166365384,1.88301029 0.166365384,1.88301029 C0.166365384,1.88301029 1.02370177,2.41514342 1.38162881,2.41514342 C1.73955585,2.41514342 2.02971305,2.1768993 2.02971305,1.88301029 L2.02971305,1.88301029 Z" id="Oval-1"></path>
                    <path d="M1.2644046,1.88301029 C1.2644046,2.1768993 1.5545618,2.41514342 1.91248884,2.41514342 C2.27041588,2.41514342 3.12775226,1.88301029 3.12775226,1.88301029 C3.12775226,1.88301029 2.27041588,1.35087715 1.91248884,1.35087715 C1.5545618,1.35087715 1.2644046,1.58912127 1.2644046,1.88301029 L1.2644046,1.88301029 Z" id="Oval-1"></path>
                    <path d="M1.64705882,1.16610407 C1.37766056,1.16610407 1.15927012,1.4826392 1.15927012,1.87310506 C1.15927012,2.26357092 1.64705882,3.19884698 1.64705882,3.19884698 C1.64705882,3.19884698 2.13484753,2.26357092 2.13484753,1.87310506 C2.13484753,1.4826392 1.91645709,1.16610407 1.64705882,1.16610407 L1.64705882,1.16610407 Z" id="Oval-1"></path>
                </g>
                <g id="Group-Copy-2" transform="translate(49.411765, 0.000000)" stroke-width="0.25" fill="#FFFFFF" stroke-linecap="round" sketch:type="MSShapeGroup" stroke-linejoin="round">
                    <path d="M4.94117647,6.32624096 C5.74937126,6.32624096 6.40454259,5.45576937 6.40454259,4.38198825 C6.40454259,3.30820713 4.94117647,0.736197967 4.94117647,0.736197967 C4.94117647,0.736197967 3.47781035,3.30820713 3.47781035,4.38198825 C3.47781035,5.45576937 4.13298168,6.32624096 4.94117647,6.32624096 Z" id="Oval-1"></path>
                    <path d="M6.08913914,5.17827829 C6.08913914,4.3700835 5.21866755,3.71491217 4.14488643,3.71491217 C3.07110531,3.71491217 0.499096151,5.17827829 0.499096151,5.17827829 C0.499096151,5.17827829 3.07110531,6.64164441 4.14488643,6.64164441 C5.21866755,6.64164441 6.08913914,5.98647308 6.08913914,5.17827829 L6.08913914,5.17827829 Z" id="Oval-1"></path>
                    <path d="M3.7932138,5.17827829 C3.7932138,5.98647308 4.66368539,6.64164441 5.73746651,6.64164441 C6.81124763,6.64164441 9.38325679,5.17827829 9.38325679,5.17827829 C9.38325679,5.17827829 6.81124763,3.71491217 5.73746651,3.71491217 C4.66368539,3.71491217 3.7932138,4.3700835 3.7932138,5.17827829 L3.7932138,5.17827829 Z" id="Oval-1"></path>
                    <path d="M4.94117647,3.2067862 C4.13298168,3.2067862 3.47781035,4.07725779 3.47781035,5.15103891 C3.47781035,6.22482004 4.94117647,8.79682919 4.94117647,8.79682919 C4.94117647,8.79682919 6.40454259,6.22482004 6.40454259,5.15103891 C6.40454259,4.07725779 5.74937126,3.2067862 4.94117647,3.2067862 L4.94117647,3.2067862 Z" id="Oval-1"></path>
                </g>
                <g id="Group-Copy" transform="translate(65.882353, 23.882353)" stroke-width="0.25" fill="#FFFFFF" stroke-linecap="round" sketch:type="MSShapeGroup" stroke-linejoin="round">
                    <path d="M2.05882353,2.87556407 C2.39557136,2.87556407 2.66855941,2.47989517 2.66855941,1.99181284 C2.66855941,1.50373051 2.05882353,0.334635439 2.05882353,0.334635439 C2.05882353,0.334635439 1.44908765,1.50373051 1.44908765,1.99181284 C1.44908765,2.47989517 1.7220757,2.87556407 2.05882353,2.87556407 Z" id="Oval-1"></path>
                    <path d="M2.53714131,2.35376286 C2.53714131,1.98640159 2.17444481,1.68859644 1.72703601,1.68859644 C1.27962721,1.68859644 0.20795673,2.35376286 0.20795673,2.35376286 C0.20795673,2.35376286 1.27962721,3.01892928 1.72703601,3.01892928 C2.17444481,3.01892928 2.53714131,2.72112413 2.53714131,2.35376286 L2.53714131,2.35376286 Z" id="Oval-1"></path>
                    <path d="M1.58050575,2.35376286 C1.58050575,2.72112413 1.94320224,3.01892928 2.39061105,3.01892928 C2.83801985,3.01892928 3.90969033,2.35376286 3.90969033,2.35376286 C3.90969033,2.35376286 2.83801985,1.68859644 2.39061105,1.68859644 C1.94320224,1.68859644 1.58050575,1.98640159 1.58050575,2.35376286 L1.58050575,2.35376286 Z" id="Oval-1"></path>
                    <path d="M2.05882353,1.45763009 C1.7220757,1.45763009 1.44908765,1.853299 1.44908765,2.34138132 C1.44908765,2.82946365 2.05882353,3.99855872 2.05882353,3.99855872 C2.05882353,3.99855872 2.66855941,2.82946365 2.66855941,2.34138132 C2.66855941,1.853299 2.39557136,1.45763009 2.05882353,1.45763009 L2.05882353,1.45763009 Z" id="Oval-1"></path>
                </g>
            </g>
        </g>
    </g>
</svg>