<?xml version="1.0" encoding="utf-8"?>
<!-- Generator: Adobe Illustrator 17.1.0, SVG Export Plug-In . SVG Version: 6.00 Build 0)  -->
<!DOCTYPE svg PUBLIC "-//W3C//DTD SVG 1.1//EN" "http://www.w3.org/Graphics/SVG/1.1/DTD/svg11.dtd">
<svg version="1.1" id="Layer_1" xmlns="http://www.w3.org/2000/svg" xmlns:xlink="http://www.w3.org/1999/xlink" x="0px" y="0px"
	 viewBox="0 0 60 60" enable-background="new 0 0 60 60" xml:space="preserve">
<path fill="#BDAA55" d="M30.1,0.3C13.9,0.3,0.7,13.4,0.7,29.6C0.7,45.9,13.9,59,30.1,59c16.2,0,29.4-13.2,29.4-29.4
	C59.5,13.4,46.3,0.3,30.1,0.3z M44.9,23.7c0,0.3,0,0.6,0,1c0,9.8-7.4,21.1-21.1,21.1c-4.2,0-8.1-1.2-11.4-3.3
	c0.6,0.1,1.2,0.1,1.8,0.1c3.5,0,6.7-1.2,9.2-3.2c-3.2-0.1-6-2.2-6.9-5.1c0.5,0.1,0.9,0.1,1.4,0.1c0.7,0,1.3-0.1,2-0.3
	c-3.4-0.7-5.9-3.7-5.9-7.3c0,0,0-0.1,0-0.1c1,0.6,2.1,0.9,3.4,0.9c-2-1.3-3.3-3.6-3.3-6.2c0-1.4,0.4-2.6,1-3.7
	c3.7,4.5,9.1,7.4,15.3,7.7c-0.1-0.5-0.2-1.1-0.2-1.7c0-4.1,3.3-7.4,7.4-7.4c2.1,0,4.1,0.9,5.4,2.3c1.7-0.3,3.3-0.9,4.7-1.8
	c-0.6,1.7-1.7,3.2-3.3,4.1c1.5-0.2,2.9-0.6,4.3-1.2C47.6,21.4,46.4,22.7,44.9,23.7z"/>
</svg>
